<svg xmlns="http://www.w3.org/2000/svg" version="1.1" xmlns:xlink="http://www.w3.org/1999/xlink" xmlns:svgjs="http://svgjs.dev/svgjs" width="1000" height="1000" viewBox="0 0 1000 1000"><rect width="1000" height="1000" fill="#50a060"></rect><g transform="matrix(0.7,0,0,0.7,149.57575757575756,396.4584413926316)"><svg viewBox="0 0 396 118" data-background-color="#50a060" preserveAspectRatio="xMidYMid meet" height="297" width="1000" xmlns="http://www.w3.org/2000/svg" xmlns:xlink="http://www.w3.org/1999/xlink"><g id="tight-bounds" transform="matrix(1,0,0,1,0.2400000000000091,-0.231823397453212)"><svg viewBox="0 0 395.52 118.46364679490642" height="118.46364679490642" width="395.52"><g><svg viewBox="0 0 571.0738403541706 171.04442181818175" height="118.46364679490642" width="395.52"><g><rect width="7.084550325332628" height="171.04442181818175" x="149.92334676880495" y="0" fill="#0f381e" opacity="1" stroke-width="0" stroke="transparent" fill-opacity="1" class="rect-o-0" data-fill-palette-color="primary" rx="1%" id="o-0" data-palette-color="#0f381e"></rect></g><g transform="matrix(1,0,0,1,175.55384035417063,0.42548363636362296)"><svg viewBox="0 0 395.5199999999999 170.1934545454545" height="170.1934545454545" width="395.5199999999999"><g><svg viewBox="0 0 395.5199999999999 170.1934545454545" height="170.1934545454545" width="395.5199999999999"><g><svg viewBox="0 0 395.5199999999999 170.1934545454545" height="170.1934545454545" width="395.5199999999999"><g transform="matrix(1,0,0,1,0,0)"><svg width="395.5199999999999" viewBox="4.449999809265137 -35.70000076293945 181.50001525878906 75.05000305175781" height="170.1934545454545" data-palette-color="#0f381e"><svg></svg><svg></svg><g class="undefined-text-0" data-fill-palette-color="primary" id="text-0"><path xmlns="http://www.w3.org/2000/svg" d="M7.95 0h-3.5v-35.5h15c1.533 0 2.933 0.317 4.2 0.95 1.267 0.633 2.377 1.49 3.33 2.57 0.947 1.087 1.68 2.287 2.2 3.6 0.513 1.32 0.77 2.663 0.77 4.03v0c0 1.7-0.323 3.3-0.97 4.8-0.653 1.5-1.57 2.767-2.75 3.8-1.187 1.033-2.58 1.717-4.18 2.05v0l8.7 13.7h-3.95l-8.35-13.1h-10.5zM7.95-32.4v16.2h11.6c1.4 0 2.617-0.383 3.65-1.15 1.033-0.767 1.833-1.777 2.4-3.03 0.567-1.247 0.85-2.57 0.85-3.97v0c0-1.433-0.323-2.76-0.97-3.98-0.653-1.213-1.52-2.197-2.6-2.95-1.087-0.747-2.297-1.12-3.63-1.12v0zM40.6-3.1h20.35v3.1h-23.85v-35.5h23.4v3.1h-19.9v12.8h17.35v2.95h-17.35zM63.7 0l14.85-35.5h2.95l14.75 35.5h-3.7l-4.6-11.1h-15.95l-4.55 11.1zM72.75-13.85h14.4l-7.15-17.55zM97.7-18v0c0-2.167 0.377-4.293 1.13-6.38 0.747-2.08 1.837-3.98 3.27-5.7 1.433-1.713 3.2-3.08 5.3-4.1 2.1-1.013 4.483-1.52 7.15-1.52v0c3.167 0 5.877 0.727 8.13 2.18 2.247 1.447 3.903 3.303 4.97 5.57v0l-2.75 1.7c-0.767-1.567-1.733-2.81-2.9-3.73-1.167-0.913-2.407-1.57-3.72-1.97-1.32-0.4-2.63-0.6-3.93-0.6v0c-2.133 0-4.017 0.423-5.65 1.27-1.633 0.853-3.007 1.987-4.12 3.4-1.12 1.42-1.963 3.003-2.53 4.75-0.567 1.753-0.85 3.53-0.85 5.33v0c0 1.967 0.333 3.85 1 5.65 0.667 1.8 1.6 3.39 2.8 4.77 1.2 1.387 2.61 2.487 4.23 3.3 1.613 0.82 3.37 1.23 5.27 1.23v0c1.333 0 2.7-0.233 4.1-0.7 1.4-0.467 2.71-1.183 3.93-2.15 1.213-0.967 2.187-2.217 2.92-3.75v0l2.9 1.5c-0.733 1.767-1.867 3.267-3.4 4.5-1.533 1.233-3.24 2.167-5.12 2.8-1.887 0.633-3.73 0.95-5.53 0.95v0c-2.433 0-4.667-0.527-6.7-1.58-2.033-1.047-3.79-2.447-5.27-4.2-1.487-1.747-2.63-3.713-3.43-5.9-0.8-2.18-1.2-4.387-1.2-6.62zM158.9-35.5h3.45v35.5h-3.45v-16.6h-21.05v16.6h-3.5v-35.5h3.5v15.8h21.05z" fill="#0f381e" fill-rule="nonzero" stroke="none" stroke-width="1" stroke-linecap="butt" stroke-linejoin="miter" stroke-miterlimit="10" stroke-dasharray="" stroke-dashoffset="0" font-family="none" font-weight="none" font-size="none" text-anchor="none" style="mix-blend-mode: normal" data-fill-palette-color="primary" opacity="1"></path><path xmlns="http://www.w3.org/2000/svg" d="M7.95 39.05h-3.5v-35.5h14.7c1.533 0 2.943 0.317 4.23 0.95 1.28 0.633 2.387 1.49 3.32 2.57 0.933 1.087 1.667 2.287 2.2 3.6 0.533 1.32 0.8 2.663 0.8 4.03v0c0 1.933-0.423 3.757-1.27 5.47-0.853 1.72-2.047 3.113-3.58 4.18-1.533 1.067-3.333 1.6-5.4 1.6v0h-11.5zM7.95 6.65v16.2h11.35c1.4 0 2.617-0.383 3.65-1.15 1.033-0.767 1.833-1.767 2.4-3 0.567-1.233 0.85-2.567 0.85-4v0c0-1.467-0.333-2.817-1-4.05-0.667-1.233-1.54-2.21-2.62-2.93-1.087-0.713-2.28-1.07-3.58-1.07v0zM59.55 39.05h-24v-35.5h3.5v32.4h20.5zM60.85 39.05l14.85-35.5h2.95l14.75 35.5h-3.7l-4.6-11.1h-15.95l-4.55 11.1zM69.9 25.2h14.4l-7.15-17.55zM94.85 21.05v0c0-2.167 0.377-4.293 1.13-6.38 0.747-2.08 1.837-3.98 3.27-5.7 1.433-1.713 3.2-3.08 5.3-4.1 2.1-1.013 4.483-1.52 7.15-1.52v0c3.167 0 5.877 0.727 8.13 2.18 2.247 1.447 3.903 3.303 4.97 5.57v0l-2.75 1.7c-0.767-1.567-1.733-2.81-2.9-3.73-1.167-0.913-2.407-1.57-3.72-1.97-1.32-0.4-2.63-0.6-3.93-0.6v0c-2.133 0-4.017 0.423-5.65 1.27-1.633 0.853-3.007 1.987-4.12 3.4-1.12 1.42-1.963 3.003-2.53 4.75-0.567 1.753-0.85 3.53-0.85 5.33v0c0 1.967 0.333 3.85 1 5.65 0.667 1.8 1.6 3.39 2.8 4.77 1.2 1.387 2.61 2.487 4.23 3.3 1.613 0.82 3.37 1.23 5.27 1.23v0c1.333 0 2.7-0.233 4.1-0.7 1.4-0.467 2.71-1.183 3.93-2.15 1.213-0.967 2.187-2.217 2.92-3.75v0l2.9 1.5c-0.733 1.767-1.867 3.267-3.4 4.5-1.533 1.233-3.24 2.167-5.12 2.8-1.887 0.633-3.73 0.95-5.53 0.95v0c-2.433 0-4.667-0.527-6.7-1.58-2.033-1.047-3.79-2.447-5.27-4.2-1.487-1.747-2.63-3.713-3.43-5.9-0.8-2.18-1.2-4.387-1.2-6.62zM135 35.95h20.35v3.1h-23.85v-35.5h23.4v3.1h-19.9v12.8h17.35v2.95h-17.35zM184.2 7.4l-1.7 2.8c-0.5-0.567-1.083-1.077-1.75-1.53-0.667-0.447-1.417-0.837-2.25-1.17-0.833-0.333-1.723-0.6-2.67-0.8-0.953-0.2-1.963-0.3-3.03-0.3v0c-3.1 0-5.373 0.59-6.82 1.77-1.453 1.187-2.18 2.797-2.18 4.83v0c0 1.4 0.343 2.5 1.03 3.3 0.68 0.8 1.753 1.45 3.22 1.95 1.467 0.5 3.333 1.017 5.6 1.55v0c2.533 0.533 4.717 1.167 6.55 1.9 1.833 0.733 3.25 1.723 4.25 2.97 1 1.253 1.5 2.947 1.5 5.08v0c0 1.633-0.317 3.05-0.95 4.25-0.633 1.2-1.517 2.2-2.65 3-1.133 0.8-2.483 1.39-4.05 1.77-1.567 0.387-3.283 0.58-5.15 0.58v0c-1.833 0-3.59-0.193-5.27-0.58-1.687-0.38-3.28-0.947-4.78-1.7-1.5-0.747-2.9-1.703-4.2-2.87v0l1.75-2.85c0.633 0.667 1.393 1.29 2.28 1.87 0.88 0.587 1.863 1.113 2.95 1.58 1.08 0.467 2.247 0.823 3.5 1.07 1.247 0.253 2.537 0.38 3.87 0.38v0c2.833 0 5.043-0.517 6.63-1.55 1.58-1.033 2.37-2.567 2.37-4.6v0c0-1.467-0.4-2.643-1.2-3.53-0.8-0.88-2-1.603-3.6-2.17-1.6-0.567-3.567-1.117-5.9-1.65v0c-2.467-0.567-4.55-1.2-6.25-1.9-1.7-0.7-2.973-1.627-3.82-2.78-0.853-1.147-1.28-2.67-1.28-4.57v0c0-2.2 0.543-4.06 1.63-5.58 1.08-1.513 2.57-2.663 4.47-3.45 1.9-0.78 4.083-1.17 6.55-1.17v0c1.567 0 3.027 0.16 4.38 0.48 1.347 0.313 2.597 0.77 3.75 1.37 1.147 0.6 2.22 1.35 3.22 2.25z" fill="#0f381e" fill-rule="nonzero" stroke="none" stroke-width="1" stroke-linecap="butt" stroke-linejoin="miter" stroke-miterlimit="10" stroke-dasharray="" stroke-dashoffset="0" font-family="none" font-weight="none" font-size="none" text-anchor="none" style="mix-blend-mode: normal" data-fill-palette-color="primary" opacity="1"></path></g></svg></g></svg></g></svg></g></svg></g><g transform="matrix(1,0,0,1,0,0.42548363636362296)"><svg viewBox="0 0 131.3774035087719 170.1934545454545" height="170.1934545454545" width="131.3774035087719"><g><svg xmlns="http://www.w3.org/2000/svg" xmlns:xlink="http://www.w3.org/1999/xlink" version="1.1" x="0" y="0" viewBox="27.5 21.5 44 57" style="enable-background:new 0 0 100 100;" xml:space="preserve" height="170.1934545454545" width="131.3774035087719" class="icon-icon-0" data-fill-palette-color="accent" id="icon-0"><g fill="#c9efc7" data-fill-palette-color="accent"><path d="M49.5 21.5c-12.1 0-22 9.8-22 21.9s22 35.1 22 35.1 22-23 22-35.1S61.6 21.5 49.5 21.5zM49.5 53.7c-6.9 0-12.5-5.6-12.5-12.4s5.6-12.4 12.5-12.4S62 34.4 62 41.3 56.4 53.7 49.5 53.7z" fill="#c9efc7" data-fill-palette-color="accent"></path></g></svg></g></svg></g></svg></g><defs></defs></svg><rect width="395.52" height="118.46364679490642" fill="none" stroke="none" visibility="hidden"></rect></g></svg></g></svg>